HIERARCHY
ROOT Hips
{
    OFFSET   0.000000   0.000000   0.000000
    CHANNELS 6 Xposition Yposition Zposition Zrotation Xrotation Yrotation
    JOINT Chest
    {
        OFFSET   0.000000   8.007230   0.000000
        CHANNELS 3 Zrotation Xrotation Yrotation
        JOINT Chest2
        {
            OFFSET   0.000000  22.077100   0.000000
            CHANNELS 3 Zrotation Xrotation Yrotation
            JOINT Neck
            {
                OFFSET   0.000000  23.254800  -0.000021
                CHANNELS 3 Zrotation Xrotation Yrotation
                JOINT Head
                {
                    OFFSET   0.000000  14.370000   1.956610
                    CHANNELS 3 Zrotation Xrotation Yrotation
                    End Site
                    {
                        OFFSET   0.000000  19.566000   0.000000
                    }
                }
            }
            JOINT LeftCollar
            {
                OFFSET   3.911900  19.017000  -0.467063
                CHANNELS 3 Zrotation Xrotation Yrotation
                JOINT LeftShoulder
                {
                    OFFSET  10.383700   0.000000   0.000000
                    CHANNELS 3 Zrotation Xrotation Yrotation
                    JOINT LeftElbow
                    {
                        OFFSET  26.662100   0.001529   0.000325
                        CHANNELS 3 Zrotation Xrotation Yrotation
                        JOINT LeftWrist
                        {
                            OFFSET  28.869000  -0.000011  -0.000096
                            CHANNELS 3 Zrotation Xrotation Yrotation
                            JOINT LeftFinger0
                            {
                                OFFSET   2.044650  -2.323460   3.252850
                                CHANNELS 3 Zrotation Xrotation Yrotation
                                JOINT LeftFinger01
                                {
                                    OFFSET   3.088130   0.000000   0.000000
                                    CHANNELS 3 Zrotation Xrotation Yrotation
                                    JOINT LeftFinger02
                                    {
                                        OFFSET   2.639460   0.000000   0.000000
                                        CHANNELS 3 Zrotation Xrotation Yrotation
                                        End Site
                                        {
                                            OFFSET   2.582190   0.000000   0.000000
                                        }
                                    }
                                }
                            }
                            JOINT LeftFinger1
                            {
                                OFFSET   8.364480   0.000000   3.252850
                                CHANNELS 3 Zrotation Xrotation Yrotation
                                JOINT LeftFinger11
                                {
                                    OFFSET   4.646930   0.000000   0.000000
                                    CHANNELS 3 Zrotation Xrotation Yrotation
                                    JOINT LeftFinger12
                                    {
                                        OFFSET   2.323460   0.000000   0.000000
                                        CHANNELS 3 Zrotation Xrotation Yrotation
                                        End Site
                                        {
                                            OFFSET   2.273050   0.000000   0.000000
                                        }
                                    }
                                }
                            }
                            JOINT LeftFinger2
                            {
                                OFFSET   8.364480   0.000016   1.078090
                                CHANNELS 3 Zrotation Xrotation Yrotation
                                JOINT LeftFinger21
                                {
                                    OFFSET   5.111620   0.000000   0.000000
                                    CHANNELS 3 Zrotation Xrotation Yrotation
                                    JOINT LeftFinger22
                                    {
                                        OFFSET   2.788160   0.000017   0.000000
                                        CHANNELS 3 Zrotation Xrotation Yrotation
                                        End Site
                                        {
                                            OFFSET   2.727660   0.000000   0.000000
                                        }
                                    }
                                }
                            }
                            JOINT LeftFinger3
                            {
                                OFFSET   7.899780   0.000015  -1.078090
                                CHANNELS 3 Zrotation Xrotation Yrotation
                                JOINT LeftFinger31
                                {
                                    OFFSET   4.646920   0.000000   0.000000
                                    CHANNELS 3 Zrotation Xrotation Yrotation
                                    JOINT LeftFinger32
                                    {
                                        OFFSET   2.323470   0.000000   0.000000
                                        CHANNELS 3 Zrotation Xrotation Yrotation
                                        End Site
                                        {
                                            OFFSET   2.273050   0.000000   0.000000
                                        }
                                    }
                                }
                            }
                            JOINT LeftFinger4
                            {
                                OFFSET   7.435090   0.000000  -3.252850
                                CHANNELS 3 Zrotation Xrotation Yrotation
                                JOINT LeftFinger41
                                {
                                    OFFSET   3.717550   0.000000   0.000000
                                    CHANNELS 3 Zrotation Xrotation Yrotation
                                    JOINT LeftFinger42
                                    {
                                        OFFSET   1.858760   0.000000   0.000000
                                        CHANNELS 3 Zrotation Xrotation Yrotation
                                        End Site
                                        {
                                            OFFSET   1.818440   0.000000   0.000000
                                        }
                                    }
                                }
                            }
                        }
                    }
                }
            }
            JOINT RightCollar
            {
                OFFSET  -3.911900  19.017000  -0.467062
                CHANNELS 3 Zrotation Xrotation Yrotation
                JOINT RightShoulder
                {
                    OFFSET -10.383700   0.000015   0.000000
                    CHANNELS 3 Zrotation Xrotation Yrotation
                    JOINT RightElbow
                    {
                        OFFSET -26.662100   0.001341   0.000385
                        CHANNELS 3 Zrotation Xrotation Yrotation
                        JOINT RightWrist
                        {
                            OFFSET -28.869000   0.000025  -0.000080
                            CHANNELS 3 Zrotation Xrotation Yrotation
                            JOINT RightFinger0
                            {
                                OFFSET  -2.044650  -2.323490   3.252850
                                CHANNELS 3 Zrotation Xrotation Yrotation
                                JOINT RightFinger01
                                {
                                    OFFSET  -3.088130   0.000000   0.000000
                                    CHANNELS 3 Zrotation Xrotation Yrotation
                                    JOINT RightFinger02
                                    {
                                        OFFSET  -2.639460   0.000000   0.000000
                                        CHANNELS 3 Zrotation Xrotation Yrotation
                                        End Site
                                        {
                                            OFFSET  -2.582190   0.000000   0.000000
                                        }
                                    }
                                }
                            }
                            JOINT RightFinger1
                            {
                                OFFSET  -8.364480   0.000000   3.252850
                                CHANNELS 3 Zrotation Xrotation Yrotation
                                JOINT RightFinger11
                                {
                                    OFFSET  -4.646930   0.000000   0.000000
                                    CHANNELS 3 Zrotation Xrotation Yrotation
                                    JOINT RightFinger12
                                    {
                                        OFFSET  -2.323470   0.000000   0.000000
                                        CHANNELS 3 Zrotation Xrotation Yrotation
                                        End Site
                                        {
                                            OFFSET  -2.273050   0.000000   0.000000
                                        }
                                    }
                                }
                            }
                            JOINT RightFinger2
                            {
                                OFFSET  -8.364480   0.000000   1.078090
                                CHANNELS 3 Zrotation Xrotation Yrotation
                                JOINT RightFinger21
                                {
                                    OFFSET  -5.111610   0.000000   0.000000
                                    CHANNELS 3 Zrotation Xrotation Yrotation
                                    JOINT RightFinger22
                                    {
                                        OFFSET  -2.788160   0.000000   0.000000
                                        CHANNELS 3 Zrotation Xrotation Yrotation
                                        End Site
                                        {
                                            OFFSET  -2.727660   0.000000   0.000000
                                        }
                                    }
                                }
                            }
                            JOINT RightFinger3
                            {
                                OFFSET  -7.899780   0.000000  -1.078090
                                CHANNELS 3 Zrotation Xrotation Yrotation
                                JOINT RightFinger31
                                {
                                    OFFSET  -4.646920   0.000000   0.000000
                                    CHANNELS 3 Zrotation Xrotation Yrotation
                                    JOINT RightFinger32
                                    {
                                        OFFSET  -2.323470   0.000000   0.000000
                                        CHANNELS 3 Zrotation Xrotation Yrotation
                                        End Site
                                        {
                                            OFFSET  -2.273050   0.000000   0.000000
                                        }
                                    }
                                }
                            }
                            JOINT RightFinger4
                            {
                                OFFSET  -7.435090   0.000000  -3.252850
                                CHANNELS 3 Zrotation Xrotation Yrotation
                                JOINT RightFinger41
                                {
                                    OFFSET  -3.717550   0.000000   0.000000
                                    CHANNELS 3 Zrotation Xrotation Yrotation
                                    JOINT RightFinger42
                                    {
                                        OFFSET  -1.858770   0.000000   0.000000
                                        CHANNELS 3 Zrotation Xrotation Yrotation
                                        End Site
                                        {
                                            OFFSET  -1.818440   0.000000   0.000000
                                        }
                                    }
                                }
                            }
                        }
                    }
                }
            }
        }
    }
    JOINT LeftHip
    {
        OFFSET   9.783010   0.000000   0.000000
        CHANNELS 3 Zrotation Xrotation Yrotation
        JOINT LeftKnee
        {
            OFFSET   0.000070 -41.789100   0.000028
            CHANNELS 3 Zrotation Xrotation Yrotation
            JOINT LeftAnkle
            {
                OFFSET   0.000087 -41.133200  -0.000100
                CHANNELS 3 Zrotation Xrotation Yrotation
                JOINT LeftToe
                {
                    OFFSET   0.000000  -6.358960  14.674500
                    CHANNELS 3 Zrotation Xrotation Yrotation
                    End Site
                    {
                        OFFSET   0.000000   0.000000   3.913200
                    }
                }
            }
        }
    }
    JOINT RightHip
    {
        OFFSET  -9.783020   0.000000   0.000000
        CHANNELS 3 Zrotation Xrotation Yrotation
        JOINT RightKnee
        {
            OFFSET   0.000044 -41.789100  -0.000870
            CHANNELS 3 Zrotation Xrotation Yrotation
            JOINT RightAnkle
            {
                OFFSET  -0.000090 -41.133200  -0.000245
                CHANNELS 3 Zrotation Xrotation Yrotation
                JOINT RightToe
                {
                    OFFSET   0.000000  -6.358960  14.674500
                    CHANNELS 3 Zrotation Xrotation Yrotation
                    End Site
                    {
                        OFFSET   0.000000   0.000000   3.913200
                    }
                }
            }
        }
    }
}
MOTION
Frames: 5
Frame Time:   0.016667
 -0.286078  89.783400  -2.156170  -0.418410  -6.449940   1.846400  -0.247812   5.391340   0.307156  -0.528337  10.781200   0.642155   1.013140  -0.070461  -0.001551   1.657650  -0.142206   6.588380  -6.836290  -2.582800   4.135140 -67.674000  22.068800  -1.768270  -3.668000  -6.638620 -18.095300   9.141430  -7.434870   8.058250  50.563800  40.810300 -81.016900 -21.218700  -0.007493   0.001947  -5.602770  -0.003869  -0.002543 -29.515400   4.089320  -7.177770 -24.359000  -0.000953  -0.000067 -17.051300   0.008830   0.002154 -28.261900   0.986153  -1.834290 -33.969700   0.002096   0.002440 -22.623800   0.001484  -0.002479 -25.653200  -0.525852   1.094720 -25.658300  -0.004486  -0.003177 -17.088500  -0.000062  -0.002956 -23.446900  -2.184940   5.023590 -35.314200   0.002083   0.001053 -23.519300   0.001532  -0.004437  11.748200   0.277240   9.626750  63.665900  14.493500  -1.735380   3.223600  -6.637960  11.518300 -19.296300 -20.012500  -3.670100 -33.405300  31.812300  66.874900  38.115400  -0.006638  -0.008508  14.044100  -0.004341  -0.005639  31.878500   3.804730   6.088990  26.261600  -0.000899   0.001844  18.383100  -0.011919   0.001429  27.804100   0.161758   0.317012  30.787400   0.000506   0.007612  20.504400   0.002900   0.003054  28.552400  -2.619240  -4.814850  38.428900   0.004847   0.000000  25.593600   0.001780  -0.003958  39.439500  -3.489900  -4.232380  59.352700   0.002646  -0.001592  39.528900   0.012282   0.001194   0.883199   4.257690   1.374260   0.501504   3.128160  10.724600  -5.272880  -2.615740   3.856340   0.000000   0.000000  -0.000000   2.254690   2.331890  -4.077710  -1.501360   8.546160 -10.228800  -6.823750  -2.110300  -1.844230  -0.000000   0.000000  -0.000000
 -0.286224  89.783400  -2.147360  -0.417358  -6.449910   1.855700  -0.244639   5.398510   0.300316  -0.521342  10.795600   0.628116   1.007670  -0.060015  -0.001522   1.651580  -0.121245   6.623470  -6.862100  -2.602550   4.124540 -67.677700  22.109300  -1.743690  -3.643290  -6.672010 -18.139800   9.111510  -7.515550   8.062100  50.503100  40.754600 -80.933700 -21.218800  -0.007512   0.002007  -5.604940  -0.003870  -0.002547 -29.519700   4.083610  -7.167420 -24.361800  -0.000951  -0.000034 -17.053300   0.008838   0.002131 -28.262500   0.975816  -1.814930 -33.987000   0.002110   0.002450 -22.635300   0.001493  -0.002479 -25.664900  -0.530814   1.104430 -25.670100  -0.004489  -0.003177 -17.096200  -0.000062  -0.002956 -23.459700  -2.198290   5.050930 -35.335100   0.002102   0.001055 -23.533200   0.001545  -0.004437  11.768200   0.247795   9.660170  63.643800  14.459600  -1.707880   3.217030  -6.676580  11.504300 -19.316200 -20.011700  -3.670770 -33.419500  31.839600  66.895200  38.107300  -0.006649  -0.008508  14.044100  -0.004341  -0.005627  31.881300   3.805750   6.090490  26.261500  -0.000901   0.001845  18.383000  -0.011919   0.001429  27.804500   0.161102   0.318228  30.798700   0.000502   0.007602  20.512000   0.002901   0.003043  28.553000  -2.619270  -4.807450  38.426900   0.004844   0.000000  25.592300   0.001779  -0.003960  39.455600  -3.485700  -4.224890  59.376400   0.002647  -0.001600  39.544700   0.012296   0.001188   0.883058   4.278860   1.374510   0.502804   3.108570  10.714100  -5.272820  -2.615690   3.856240  -0.000000   0.000000   0.000000   2.256160   2.347490  -4.081270  -1.496240   8.531270 -10.253000  -6.828840  -2.100950  -1.830400   0.000000   0.000000   0.000000
 -0.286371  89.783300  -2.132300  -0.415859  -6.449860   1.868870  -0.238509   5.410320   0.290359  -0.508120  10.819300   0.607543   0.996472  -0.035534  -0.001481   1.636960  -0.071933   6.687310  -6.903680  -2.631490   4.113970 -67.680500  22.178000  -1.719440  -3.631010  -6.777960 -18.232100   9.073910  -7.635060   8.080780  50.382100  40.652200 -80.794000 -21.219400  -0.007541   0.002097  -5.609710  -0.003874  -0.002551 -29.534000   4.072000  -7.144060 -24.372300  -0.000949  -0.000000 -17.060600   0.008846   0.002108 -28.263700   0.954843  -1.775720 -34.016300   0.002133   0.002474 -22.654800   0.001507  -0.002478 -25.681500  -0.542573   1.128000 -25.687000  -0.004494  -0.003177 -17.107500  -0.000062  -0.002955 -23.479500  -2.221640   5.099390 -35.367900   0.002133   0.001061 -23.555000   0.001566  -0.004437  11.797300   0.199318   9.693570  63.604700  14.400000  -1.623890   3.207880  -6.756450  11.450200 -19.335700 -20.005900  -3.671330 -33.441300  31.884400  66.941100  38.097900  -0.006672  -0.008509  14.044100  -0.004343  -0.005610  31.885900   3.812670   6.100980  26.261400  -0.000905   0.001850  18.383000  -0.011920   0.001432  27.804800   0.160446   0.320962  30.810100   0.000493   0.007574  20.519500   0.002903   0.003015  28.553600  -2.619300  -4.800060  38.413000   0.004835   0.000000  25.583000   0.001777  -0.003961  39.471800  -3.481500  -4.217390  59.400000   0.002650  -0.001621  39.560400   0.012334   0.001171   0.882703   4.308890   1.374770   0.504096   3.088990  10.703700  -5.272740  -2.615650   3.856130   0.000000   0.000000  -0.000000   2.258980   2.379100  -4.089970  -1.486940   8.500470 -10.296300  -6.837900  -2.085210  -1.801120   0.000000   0.000000   0.000000
 -0.285071  89.783200  -2.119170  -0.415038  -6.452630   1.875120  -0.231643   5.418430   0.284734  -0.493743  10.835600   0.595442   0.983028  -0.001598  -0.001457   1.615290  -0.003330   6.746750  -6.934010  -2.648500   4.116240 -67.705500  22.231500  -1.728100  -3.668450  -6.938640 -18.333900   9.067830  -7.687930   8.120230  50.315300  40.596700 -80.738500 -21.223100  -0.007559   0.002160  -5.612740  -0.003877  -0.002541 -29.547500   4.062840  -7.124130 -24.382100  -0.000950  -0.000000 -17.067500   0.008843   0.002126 -28.264800   0.940485  -1.749040 -34.028400   0.002155   0.002509 -22.662900   0.001520  -0.002478 -25.689600  -0.558664   1.160970 -25.695500  -0.004502  -0.003177 -17.114200  -0.000063  -0.002955 -23.487000  -2.236840   5.132340 -35.381700   0.002164   0.001069 -23.564200   0.001587  -0.004437  11.811500   0.161223   9.693480  63.565900  14.359800  -1.483340   3.200950  -6.816640  11.345800 -19.321200 -19.925800  -3.646030 -33.453100  31.935300  67.015800  38.096500  -0.006697  -0.008484  14.044100  -0.004352  -0.005602  31.889700   3.835220   6.135970  26.262300  -0.000908   0.001859  18.383600  -0.011922   0.001439  27.804700   0.166999   0.325818  30.810000   0.000481   0.007529  20.519400   0.002905   0.002973  28.552200  -2.620610  -4.802660  38.371700   0.004820  -0.000000  25.555500   0.001775  -0.003961  39.465500  -3.488530  -4.226720  59.391900   0.002655  -0.001654  39.555000   0.012393   0.001144   0.882439   4.317700   1.373270   0.505067   3.091360  10.705600  -5.272440  -2.619510   3.856280  -0.000000   0.000000   0.000000   2.260740   2.415110  -4.102310  -1.477370   8.462580 -10.339900  -6.846430  -2.073030  -1.763390  -0.000000   0.000000   0.000000
 -0.281815  89.783100  -2.106070  -0.414374  -6.463730   1.877510  -0.224168   5.428530   0.282228  -0.478578  10.855900   0.589898   0.967313   0.041829  -0.001446   1.589090   0.084581   6.818370  -6.962580  -2.656280   4.131740 -67.754900  22.294100  -1.779190  -3.769170  -7.218460 -18.477800   9.083890  -7.744850   8.205710  50.080400  40.438100 -80.563400 -21.247200  -0.007579   0.002193  -5.623590  -0.003887  -0.002530 -29.596200   4.042160  -7.073770 -24.420200  -0.000951  -0.000000 -17.094100   0.008838   0.002160 -28.268400   0.901064  -1.675450 -34.065300   0.002168   0.002548 -22.687500   0.001527  -0.002478 -25.692400  -0.580222   1.205620 -25.698900  -0.004512  -0.003176 -17.117300  -0.000064  -0.002955 -23.502400  -2.264980   5.192590 -35.408900   0.002183   0.001078 -23.582300   0.001600  -0.004436  11.819700   0.124877   9.692930  63.514300  14.286900  -1.283550   3.202090  -6.968020  11.197900 -19.271900 -19.661700  -3.568430 -33.457600  31.968200  67.065300  38.096300  -0.006726  -0.008443  14.044100  -0.004369  -0.005594  31.891800   3.851870   6.161960  26.263100  -0.000913   0.001872  18.384200  -0.011925   0.001449  27.804000   0.173551   0.329155  30.809000   0.000465   0.007473  20.518800   0.002907   0.002921  28.547200  -2.629800  -4.820880  38.284700   0.004801   0.000000  25.497600   0.001773  -0.003958  39.427300  -3.498100  -4.244010  59.335400   0.002662  -0.001696  39.517400   0.012471   0.001110   0.882213   4.328640   1.370580   0.506292   3.093690  10.710200  -5.271930  -2.626710   3.856770   0.000000   0.000000   0.000000   2.261200   2.459920  -4.118810  -1.467900   8.418930 -10.381000  -6.855410  -2.059140  -1.720630   0.000000   0.000000  -0.000000
